<svg version="1.1" id="Layer_1" xmlns="http://www.w3.org/2000/svg" xmlns:xlink="http://www.w3.org/1999/xlink" x="0px" y="0px"
	 width="100%" viewBox="0 0 752 768" enable-background="new 0 0 752 768" xml:space="preserve">
<path fill="#000000" opacity="1.000000" stroke="none" 
	d="
M753.000000,445.531342 
	C749.562073,462.924622 746.564758,479.927338 741.664917,496.547485 
	C725.331726,551.949402 698.037354,601.148193 659.085510,643.838867 
	C608.887085,698.855591 547.702332,735.697021 475.686829,754.555664 
	C453.444427,760.380249 430.856110,763.949219 407.874268,765.491638 
	C330.163818,770.707092 257.540314,753.888977 190.825180,713.951294 
	C107.524506,664.085083 51.782978,592.125427 23.273413,499.253845 
	C15.148787,472.787415 10.337743,445.701233 8.505696,418.029999 
	C7.116109,397.041687 6.968236,376.066345 8.871001,355.173767 
	C13.796859,301.087311 29.175900,250.067825 56.436172,203.006165 
	C107.680595,114.538734 182.676270,56.086678 280.815979,27.500151 
	C305.127350,20.418634 329.989563,16.113148 355.326904,14.578648 
	C460.752747,8.193767 553.507324,39.453690 632.332520,109.659531 
	C695.911743,166.286514 734.821655,237.336639 750.399231,321.096191 
	C751.096863,324.847656 751.931152,328.573700 752.850891,332.655792 
	C753.000000,370.354218 753.000000,407.708466 753.000000,445.531342 
M294.102020,740.208069 
	C304.356689,742.910278 314.784973,744.787292 325.214600,746.628357 
	C336.224701,748.572021 347.427032,748.379395 358.514252,749.374268 
	C380.715515,751.366516 402.701416,749.250977 424.744080,747.271301 
	C434.378723,746.406067 443.649353,743.950745 453.068817,742.071106 
	C466.439056,739.403259 479.641876,736.114685 492.492523,731.680603 
	C517.215759,723.150085 540.806824,712.192627 563.264771,698.632812 
	C598.679138,677.250061 629.640808,650.797485 655.862244,618.883240 
	C682.036804,587.025879 702.394531,551.858032 716.492615,512.933838 
	C724.886719,489.757874 730.714478,466.108002 734.927795,441.915283 
	C736.074707,435.329376 736.485046,428.713043 737.366577,422.127838 
	C739.758728,404.258911 740.693359,386.287445 739.393250,368.327698 
	C737.917542,347.942535 734.376160,327.827240 730.002197,307.846069 
	C725.913696,289.168640 720.256714,270.988403 713.335938,253.213165 
	C701.628357,223.143616 685.762390,195.364349 666.475342,169.505127 
	C652.496948,150.763412 636.527039,133.879837 619.435364,117.974442 
	C608.811279,108.087723 597.469360,99.052612 585.672241,90.733299 
	C569.084595,79.035767 551.560242,68.779259 533.222900,59.914211 
	C515.366516,51.281700 496.923218,44.078083 477.936584,38.699646 
	C461.542450,34.055607 444.849335,30.245491 427.779572,28.254511 
	C413.104065,26.542793 398.504486,24.279802 383.688568,24.261541 
	C372.042908,24.247185 360.456268,25.062080 348.828156,25.843678 
	C321.776825,27.661964 295.464355,32.892082 269.789307,41.010864 
	C238.442749,50.923054 208.734024,64.611748 181.219040,82.859619 
	C138.452438,111.222359 102.922119,146.725693 74.918251,189.743744 
	C64.089523,206.378265 54.518188,223.763016 46.634159,241.921631 
	C37.780991,262.312378 30.912510,283.489166 25.957516,305.204163 
	C23.782316,314.736847 22.007294,324.369537 20.337511,334.006561 
	C18.436417,344.978516 18.055138,356.115356 17.448427,367.209381 
	C16.939806,376.509766 15.159726,385.843018 16.545698,395.128662 
	C18.537340,408.472198 17.770332,421.975861 19.924774,435.361389 
	C22.193802,449.458740 24.024736,463.673096 27.825760,477.391785 
	C33.403141,497.521637 39.804466,517.411926 48.610703,536.488953 
	C60.372883,561.969482 74.304298,586.103699 91.401268,608.345581 
	C111.903221,635.017090 135.628510,658.457703 162.515121,678.736328 
	C177.181870,689.798340 192.660507,699.630920 208.823608,708.175659 
	C223.745529,716.064331 239.178909,723.052734 255.253784,728.553833 
	C267.807190,732.849854 280.283722,737.278870 294.102020,740.208069 
z"/>
<path fill="#000000" opacity="1.000000" stroke="none" 
	d="
M570.317383,402.634003 
	C574.457764,406.251740 578.545288,409.340454 582.247131,412.944214 
	C593.164307,423.572083 596.522461,436.545319 594.473267,451.158234 
	C593.688843,456.752625 595.591919,462.049500 595.288269,467.565125 
	C594.475159,482.335815 592.286560,496.955688 590.814697,511.652100 
	C589.475586,525.023254 584.925232,537.504700 580.828552,550.093201 
	C576.772522,562.556885 573.616211,575.246765 570.162537,587.866577 
	C565.349792,605.452576 559.617310,622.718384 552.186890,639.404541 
	C548.681274,647.276917 545.448486,655.275818 542.288025,663.294678 
	C540.640991,667.473694 537.677490,670.612061 534.694092,673.703674 
	C529.959778,678.609680 524.973145,683.272339 520.085815,688.030396 
	C515.661377,692.337830 512.038757,692.925049 506.558685,690.077942 
	C503.324463,688.397583 500.018921,686.821838 497.213684,684.409485 
	C493.792511,681.467529 490.029541,678.757202 490.685913,673.404602 
	C490.705017,673.249023 490.670258,673.044861 490.579681,672.923828 
	C485.423035,666.030029 484.048859,657.625793 481.122192,649.827148 
	C480.234497,647.461670 479.292511,645.442993 479.483093,642.820129 
	C479.861389,637.614319 475.477661,634.199158 474.069397,629.613159 
	C473.525482,627.841797 471.124390,626.094421 473.461517,624.360413 
	C476.019318,622.462646 477.538635,624.808044 479.265137,626.415222 
	C483.868042,630.700134 488.619415,634.825439 493.369293,639.065552 
	C492.921509,639.551208 493.411499,639.258301 493.522217,638.859985 
	C494.131805,636.666809 494.155518,633.600098 497.428467,634.188965 
	C500.121094,634.673401 499.949097,637.465698 499.702881,639.579468 
	C499.338898,642.704285 500.624634,644.915283 502.791412,647.067932 
	C503.958679,645.361511 502.656494,644.023987 502.711548,642.618408 
	C502.831848,639.544617 504.015045,638.341553 507.165833,639.456055 
	C514.448853,642.032104 515.012146,641.860474 519.520630,635.601929 
	C529.785889,621.351990 537.177429,605.673035 542.594421,589.012329 
	C548.492737,570.871399 553.928772,552.598267 558.501099,534.074341 
	C561.636597,521.371704 565.301880,508.768036 567.712463,495.929016 
	C569.388184,487.004425 569.760498,477.763580 569.938721,468.648804 
	C570.130066,458.864227 570.583862,449.060425 568.798706,439.269226 
	C565.656677,422.036377 545.960144,408.657867 529.080811,413.160400 
	C523.415649,414.671570 517.650269,414.213593 511.911285,415.731018 
	C500.645538,418.709656 490.552063,423.908264 480.528442,429.399353 
	C463.861664,438.529633 449.450653,450.992340 433.737518,461.541504 
	C421.872925,469.506836 410.342468,477.915985 399.898132,487.728424 
	C395.018127,492.313171 390.812622,497.470764 387.122650,503.016907 
	C381.524292,511.431335 381.098053,521.235535 380.503906,530.826294 
	C379.948486,539.791992 379.797699,548.779907 378.257996,557.653931 
	C376.929504,565.310608 370.001862,568.562988 363.500763,564.400208 
	C355.331146,559.169006 351.440643,551.338318 350.819427,541.805969 
	C350.065063,530.230286 352.384674,518.926575 354.260925,507.626740 
	C357.171600,490.097137 362.890656,473.142914 365.232239,455.475433 
	C365.488647,453.540833 366.565796,451.727844 367.112946,449.815704 
	C367.786407,447.462158 368.775848,444.905853 371.364044,444.904053 
	C373.991669,444.902222 374.653473,447.714783 375.620697,449.850800 
	C379.223755,457.807953 380.549377,466.334747 382.070526,474.819794 
	C382.415497,476.744080 382.034821,479.231049 384.051453,480.193451 
	C386.377502,481.303619 387.430969,478.766235 388.915070,477.591705 
	C416.827271,455.502441 445.351349,434.347351 477.050873,417.803619 
	C489.728210,411.187378 502.155823,404.016510 515.858093,399.766418 
	C524.506836,397.083801 533.111084,393.917328 542.427429,393.818024 
	C552.615173,393.709503 561.648376,396.922119 570.317383,402.634003 
z"/>
<path fill="#000000" opacity="1.000000" stroke="none" 
	d="
M257.070862,144.029877 
	C258.190186,141.667664 260.200104,139.971573 259.302704,136.710953 
	C254.205017,137.009216 249.651443,139.262665 246.309357,142.649734 
	C242.284363,146.728958 238.650803,146.279388 234.325867,143.999481 
	C229.421265,141.413986 227.159256,136.611023 225.066666,132.040222 
	C223.562057,128.753708 226.756912,126.548965 229.281006,124.942497 
	C240.086746,118.065132 251.220230,111.811073 263.166931,107.052521 
	C277.218933,101.455383 291.675354,98.310265 306.870697,98.660469 
	C315.861542,98.867683 320.800507,102.075462 323.571320,110.013359 
	C324.137787,111.636238 324.488556,113.343430 324.013031,114.921402 
	C321.569672,123.029221 319.185425,131.155792 312.891144,137.420288 
	C310.310028,139.989212 307.757874,142.752121 305.921173,145.857727 
	C304.080078,148.970688 300.579407,148.961029 298.235565,151.112381 
	C294.603088,154.446533 290.605438,157.398453 286.349091,160.028137 
	C282.768768,162.240143 279.209229,163.435715 275.051178,163.016846 
	C273.163574,162.826691 271.301758,163.127731 270.043335,164.699326 
	C264.475555,171.652740 258.604431,178.397919 253.804184,187.147400 
	C257.479980,186.218903 259.774261,184.685226 261.937378,183.106018 
	C265.592194,180.437790 269.489532,178.239502 273.580841,176.364761 
	C279.755768,173.535278 285.908539,176.951309 286.873718,183.698959 
	C286.920837,184.028259 286.982544,184.363373 286.967316,184.692535 
	C285.849518,208.858719 289.618530,232.872452 289.225586,257.004150 
	C289.123169,263.294495 286.641083,268.848999 281.347260,272.885864 
	C278.117981,275.348389 274.622101,276.308044 271.126495,274.375336 
	C267.530945,272.387421 265.783325,274.426544 264.135040,276.766083 
	C253.711868,291.560516 242.110275,305.511841 233.339584,321.490417 
	C227.669052,331.821045 220.944962,341.567688 213.635956,350.853638 
	C210.348969,355.029724 208.706772,360.104156 205.324707,364.341705 
	C198.059601,373.444336 189.436539,381.110992 181.163956,389.165924 
	C180.161240,390.142242 179.269150,391.219177 179.351761,392.587830 
	C179.607727,396.828827 177.104523,398.083893 173.516846,398.284790 
	C170.844574,398.434448 168.930573,399.660339 167.242813,401.793640 
	C164.010773,405.878967 157.938614,406.271759 153.989151,402.768402 
	C148.817978,398.181396 146.167282,392.171478 144.569473,385.581146 
	C144.034256,383.373688 144.847519,382.210022 146.975189,382.376953 
	C156.016006,383.086365 162.902145,378.233765 169.781250,373.544830 
	C174.522018,370.313385 178.937241,366.607758 183.566299,363.207123 
	C185.064499,362.106506 186.541855,361.112061 187.187210,359.240936 
	C187.450546,358.477478 187.816635,357.401276 188.417984,357.154419 
	C198.642670,352.957275 200.808441,341.822418 207.700165,334.683136 
	C214.573608,327.562775 220.417023,319.350983 225.777237,310.912048 
	C235.514343,295.582367 247.202652,281.694122 258.131683,267.244873 
	C259.685913,265.190033 261.783417,263.362762 261.510193,259.828735 
	C255.927567,260.902466 252.679184,265.110931 248.791733,268.140381 
	C243.440140,272.310852 241.834549,272.350586 237.448792,267.282959 
	C236.795822,266.528503 236.263794,265.929352 235.053818,265.842590 
	C229.880219,265.471619 227.987015,263.397461 228.287598,258.157776 
	C229.240463,241.548904 230.775650,224.973648 234.190674,208.687332 
	C236.166672,199.263840 240.371429,190.504410 244.580261,181.843170 
	C245.221680,180.523193 246.134949,179.314240 245.659348,177.350113 
	C238.405670,180.189255 233.267639,185.927658 226.643219,189.296799 
	C223.134964,191.081070 219.570984,192.962204 216.655228,195.800156 
	C214.810211,197.595917 212.543716,199.081085 209.960602,197.351471 
	C207.520782,195.717789 206.814636,192.967880 207.300781,190.266098 
	C208.313553,184.637558 210.449585,179.591553 216.688736,177.943298 
	C219.178528,177.285522 219.870392,176.115280 219.309280,173.630737 
	C217.695938,166.487091 221.688126,161.231308 225.583237,156.006332 
	C226.328491,155.006668 227.507584,154.636246 228.727219,155.074142 
	C230.573029,155.736862 231.044937,157.327209 231.128235,159.072647 
	C231.320938,163.109924 229.503281,166.748764 228.786041,170.828857 
	C239.273865,163.045929 250.486038,156.268372 257.070862,144.029877 
M270.351654,135.771881 
	C270.452972,141.978989 270.820801,142.267181 276.795715,141.881271 
	C284.267548,141.398651 288.663391,136.694611 292.194946,130.813675 
	C292.940399,129.572296 293.823364,128.087204 293.003113,126.620995 
	C291.997559,124.823486 290.011475,125.166412 288.512573,125.513451 
	C283.853729,126.592079 279.276428,128.017288 274.639709,129.199097 
	C271.593170,129.975601 270.165131,131.807449 270.351654,135.771881 
M253.960083,206.270401 
	C254.919510,205.614197 255.794495,204.644638 256.853821,204.359177 
	C260.356750,203.415222 264.410797,201.775986 267.300964,204.597092 
	C270.365448,207.588287 267.820923,211.013123 266.252472,214.153229 
	C264.364014,217.933990 262.248810,221.666016 261.604462,225.946884 
	C268.624298,227.825287 270.628387,226.157104 270.953430,219.500854 
	C271.315277,212.091095 269.702515,204.955093 268.616943,197.750000 
	C268.304230,195.674469 267.509979,192.674057 264.106262,194.135559 
	C256.742432,197.297470 251.239182,202.470642 246.940186,210.926056 
	C249.861526,208.991211 251.606445,207.835526 253.960083,206.270401 
M240.669312,252.097839 
	C242.698059,249.932434 243.794998,247.848145 242.254318,244.629929 
	C241.054138,242.122955 241.525375,239.201950 242.684525,236.414642 
	C243.689941,233.997025 245.516632,231.658127 244.928268,228.601868 
	C241.739624,228.729843 239.635269,230.135132 239.382233,232.926926 
	C238.720474,240.228104 238.412476,247.561340 237.914429,255.680649 
	C239.084564,254.138092 239.671066,253.364929 240.669312,252.097839 
z"/>
<path fill="#000000" opacity="1.000000" stroke="none" 
	d="
M478.500366,256.572083 
	C494.838226,251.634018 511.090302,248.351746 527.744324,247.454376 
	C534.772583,247.075653 540.553589,250.642654 545.904175,254.711273 
	C549.480713,257.430878 549.581360,260.760315 546.630066,264.163574 
	C546.303101,264.540588 546.008118,265.038757 545.585571,265.225555 
	C535.788513,269.556702 526.790771,275.521881 516.238525,278.360443 
	C501.828705,282.236664 486.806183,282.421295 472.461304,287.066559 
	C443.307007,296.507568 416.380188,310.503418 389.700256,325.181030 
	C382.115540,329.353699 374.547974,333.410004 368.009766,339.279266 
	C363.770416,343.084930 357.037384,342.139130 351.456604,337.907715 
	C342.824432,331.362762 338.423737,316.883026 341.990021,306.790649 
	C343.476440,302.584259 347.066376,300.893250 350.905090,300.564880 
	C360.526154,299.741882 368.662323,295.297424 376.803711,290.792206 
	C395.918823,280.214417 414.235901,268.438721 429.960876,253.128326 
	C437.030853,246.244720 439.466675,237.547287 438.112061,227.639557 
	C436.618347,216.714432 436.864929,205.792679 440.095490,195.128616 
	C442.479309,187.259857 451.295654,183.971054 458.224731,188.558029 
	C464.596588,192.776108 470.875916,197.183121 476.852081,201.939072 
	C488.021545,210.827942 489.796173,219.708939 484.574951,233.324570 
	C481.486420,241.378662 476.304291,247.133347 469.053802,251.476212 
	C463.847046,254.594910 458.875916,258.106903 454.172028,262.634003 
	C462.153473,260.657013 470.134888,258.680023 478.500366,256.572083 
z"/>
<path fill="#000000" opacity="1.000000" stroke="none" 
	d="
M291.255829,386.403809 
	C294.309570,378.674316 296.855255,371.148254 300.960602,363.906281 
	C303.914001,365.410187 305.089783,367.914886 305.142822,370.442017 
	C305.270355,376.516174 306.867065,382.285736 308.121948,388.126160 
	C311.661682,404.600708 309.896515,421.290741 310.140533,437.883636 
	C310.468658,460.194397 310.131317,482.514435 310.385193,504.827057 
	C310.454895,510.951538 311.528961,517.074463 312.293304,523.179199 
	C314.031830,537.064880 311.581238,550.728210 310.192596,564.444336 
	C309.696442,569.344910 305.805084,570.407837 301.877380,570.736328 
	C298.392731,571.027893 295.455139,571.579102 293.458801,574.952271 
	C292.165039,577.138184 289.328156,577.279602 287.650787,575.964905 
	C281.169403,570.884888 273.402771,567.419983 268.640686,560.130981 
	C264.184204,553.309875 263.628967,545.902283 263.904938,538.166443 
	C264.282806,527.573914 264.533936,516.983948 262.545471,506.481659 
	C261.867462,502.900909 260.304535,499.654877 265.424194,496.856689 
	C267.813782,495.550659 268.165314,489.822357 268.728394,485.993683 
	C270.659546,472.862793 273.004272,459.811523 275.318481,446.745361 
	C277.923645,432.036682 281.908447,417.696899 285.765930,403.314758 
	C287.265900,397.722321 289.294952,392.271790 291.255829,386.403809 
z"/>
<path fill="#000000" opacity="1.000000" stroke="none" 
	d="
M483.519073,549.491455 
	C481.488953,554.702148 478.425415,558.886536 475.368988,563.006409 
	C472.975647,566.232605 469.795898,568.686646 465.605011,569.469543 
	C459.618286,570.587830 454.625885,574.932922 448.009094,574.339966 
	C441.453339,573.752380 434.424713,566.347778 434.874237,559.778198 
	C435.022675,557.608826 436.062653,556.345825 438.150208,556.035889 
	C440.560944,555.677917 442.560425,554.499023 444.331757,552.973755 
	C448.068542,549.756104 447.722534,546.944397 443.440643,544.798279 
	C436.534363,541.336609 434.924194,537.951172 436.334808,530.260559 
	C436.722412,528.147400 437.273712,525.876099 436.883301,523.843750 
	C435.724457,517.810974 438.210297,514.189758 443.335388,511.285004 
	C447.835938,508.734283 452.619049,506.834351 457.147217,504.388916 
	C460.779053,502.427582 463.166840,499.797241 462.841095,495.296753 
	C462.547821,491.245178 464.827576,487.173065 462.850952,482.831360 
	C459.449524,482.926270 456.953705,484.988678 454.295380,486.484436 
	C446.358948,490.950012 438.079102,494.770142 431.352844,501.280762 
	C425.392700,507.049744 417.663513,505.015656 414.342651,497.413025 
	C412.859009,494.016418 414.535034,491.634705 416.992004,489.594055 
	C423.032776,484.576996 429.510223,480.137695 436.724823,477.067871 
	C444.264893,473.859558 451.063171,469.401276 458.096252,465.341492 
	C462.251648,462.942841 461.951477,458.736572 461.393127,454.690308 
	C461.175781,453.115265 461.027008,451.677124 462.712738,450.817902 
	C464.204041,450.057800 465.544128,450.252380 466.865479,451.334076 
	C473.111359,456.447174 480.193054,455.408417 487.329407,454.082855 
	C493.856232,452.870483 500.451202,451.200317 506.839020,454.523315 
	C515.265564,458.906830 517.843567,466.810822 514.006226,475.392639 
	C512.351440,479.093323 510.364532,482.744293 509.934784,487.343109 
	C513.716919,486.458954 517.056580,485.735352 520.365723,484.892090 
	C526.139343,483.420898 533.431396,486.537262 536.091919,491.846069 
	C537.967529,495.588623 534.788635,496.954956 532.482483,498.310028 
	C529.054077,500.324554 525.311218,501.797607 521.838379,503.744110 
	C514.880066,507.644165 508.167358,512.010620 501.064880,515.616577 
	C494.563293,518.917542 492.252533,524.690674 490.242981,530.954712 
	C488.273132,537.094849 486.963715,543.481873 483.519073,549.491455 
z"/>
<path fill="#000000" opacity="1.000000" stroke="none" 
	d="
M444.007446,392.077820 
	C438.157166,395.297516 433.805389,399.477478 430.959320,405.196594 
	C429.590027,407.948181 427.484283,410.032288 424.600403,411.273102 
	C418.708160,413.808350 413.788635,410.697937 413.712433,404.348114 
	C413.668457,400.683746 413.616608,397.018494 413.648499,393.354370 
	C413.712128,386.047577 417.893738,379.869720 424.800415,377.976013 
	C439.223389,374.021637 449.359894,364.449829 458.236938,353.161072 
	C459.385498,351.700470 461.257782,350.018921 460.300690,347.844696 
	C459.283264,345.533417 456.855042,346.330811 454.953461,346.218872 
	C443.203583,345.527161 431.802704,347.299774 420.435547,350.334229 
	C414.505615,351.917206 408.145325,352.169006 401.792389,349.744904 
	C402.913788,346.251740 405.336914,345.498077 407.922455,344.728485 
	C411.059937,343.794647 414.243805,343.690308 415.766907,339.223145 
	C416.697266,336.494507 421.681793,336.089600 425.005371,335.287323 
	C433.048859,333.345673 441.245605,332.024414 449.259888,329.980072 
	C459.271637,327.426270 468.712097,329.164978 477.989594,332.884766 
	C481.816742,334.419312 484.711182,337.364166 486.921295,340.654602 
	C489.282196,344.169495 488.688995,347.895264 485.832825,351.180634 
	C483.479858,353.887146 482.394257,356.410828 485.050415,359.991425 
	C487.565887,363.382385 486.071014,367.297058 481.970215,369.523621 
	C470.880341,375.544800 459.717194,381.431732 449.139557,388.341034 
	C447.470032,389.431580 445.913788,390.695618 444.007446,392.077820 
z"/>
<path fill="#000000" opacity="1.000000" stroke="none" 
	d="
M203.279633,159.488388 
	C203.109268,161.873291 202.760590,163.694275 201.630508,165.515839 
	C199.346115,169.198059 197.629547,173.154541 198.137405,177.711243 
	C198.345810,179.581100 197.672516,181.218582 196.803299,182.912994 
	C193.861832,188.647003 192.113403,194.743118 191.109894,201.149857 
	C190.441528,205.416916 190.146225,210.560684 184.804001,212.036240 
	C177.601028,214.025742 172.194717,211.134079 168.113510,206.223083 
	C163.512222,200.686264 163.403473,195.601852 165.811966,189.292770 
	C170.408615,177.251770 171.843536,164.097260 177.882019,152.584686 
	C182.422958,143.927277 187.691071,135.630066 192.980499,127.394104 
	C196.345932,122.153908 203.510574,120.012886 207.755173,122.343452 
	C212.183609,124.774971 213.524780,131.787140 212.949402,137.495743 
	C212.093811,145.984161 205.985168,151.679962 203.279633,159.488388 
z"/>
<path fill="#000000" opacity="1.000000" stroke="none" 
	d="
M270.118774,439.648071 
	C265.958527,447.058197 259.464386,451.428162 252.917816,455.716919 
	C251.661530,456.539978 250.116806,457.154236 248.814377,455.773438 
	C247.559479,454.442963 248.263931,453.050232 248.887863,451.620026 
	C250.314667,448.349457 251.610977,445.021942 252.512970,441.377167 
	C246.861221,443.931366 240.991684,445.833618 237.753326,451.583649 
	C236.252792,454.247986 233.796341,456.046387 231.714645,458.191589 
	C225.162338,464.943909 221.180359,463.746033 214.649872,456.951202 
	C210.463409,452.595276 210.636139,449.363708 214.033691,443.948486 
	C214.464020,443.262604 214.824921,442.455353 214.941910,441.663574 
	C215.610184,437.140503 218.477737,434.919617 222.579407,433.404877 
	C231.454529,430.127380 240.101883,426.207458 249.052872,423.170715 
	C254.291580,421.393402 259.963837,419.531586 265.328522,423.354431 
	C271.014130,427.406006 272.080231,432.897003 270.118774,439.648071 
z"/>
<path fill="#000000" opacity="1.000000" stroke="none" 
	d="
M226.855698,481.891479 
	C230.274261,477.377380 233.335724,473.035461 237.263046,469.404816 
	C239.033737,467.767822 240.786057,466.131927 243.353745,467.801361 
	C245.211624,469.009247 246.409378,467.918854 247.744659,466.839172 
	C251.608856,463.714630 255.441284,460.540558 259.451050,457.611725 
	C260.924286,456.535675 262.920929,454.751373 264.713104,456.882660 
	C266.124329,458.560944 264.828491,460.281097 263.696472,461.800629 
	C256.863770,470.972168 250.266220,480.328796 243.167984,489.289215 
	C238.375320,495.339142 238.208481,502.916443 235.408234,509.597351 
	C234.560547,511.619812 233.713165,513.551453 232.300720,515.198792 
	C226.277893,522.223206 222.143951,521.607605 216.764618,514.168396 
	C209.753265,504.472168 213.391663,494.515259 218.002258,487.812775 
	C220.040482,484.849823 224.077591,484.566284 226.855698,481.891479 
z"/>
<path fill="#000000" opacity="1.000000" stroke="none" 
	d="
M300.004669,301.976868 
	C306.966156,306.834503 308.005096,315.135590 302.748718,321.189789 
	C300.718018,323.528687 298.119873,322.547516 295.743774,322.569305 
	C286.293823,322.656128 285.061951,321.148407 282.619385,312.070435 
	C281.120178,306.498535 280.564331,301.022766 280.748566,295.379120 
	C280.923218,290.028564 282.861847,289.297974 287.713989,291.166504 
	C293.195984,293.277496 296.130127,297.779449 300.004669,301.976868 
z"/>
</svg>